<?xml version="1.0" encoding="UTF-8" standalone="no"?>
<!-- Created with Inkscape (http://www.inkscape.org/) -->

<svg
   version="1.1"
   id="svg62"
   width="48"
   height="48"
   viewBox="0 0 48 48"
   xmlns="http://www.w3.org/2000/svg"
   xmlns:svg="http://www.w3.org/2000/svg">
  <defs
     id="defs66" />
  <g
     id="g68">
    <path
       style="fill:#000000;stroke-width:0.256853"
       d="M 4.1534017,47.674 C 3.6834027,47.52355 2.7498345,46.906711 2.0788059,46.303232 0.01487997,44.447104 0,44.340634 0,31.433567 0,19.404189 0.03159994,19.090069 1.4262372,17.261131 c 0.3551493,-0.465739 1.1907476,-1.167269 1.8568863,-1.558968 1.1815676,-0.69474 1.3076174,-0.71217 5.1531997,-0.71217 h 3.9420018 l 0.058,2.883258 c 0.0319,1.585778 -0.0127,2.997707 -0.0991,3.137606 -0.0864,0.13991 -1.424167,0.28745 -2.9727337,0.32785 l -2.8155543,0.0735 -0.0671,10.08281 -0.0672,10.08282 h 10.13888 10.13888 l 0.0726,-2.889978 0.0726,-2.889987 h 3.081823 3.081824 l 0.0712,3.652137 c 0.0771,3.953206 -0.0763,4.666265 -1.367587,6.359733 -0.374339,0.49092 -1.297648,1.184559 -2.051786,1.541429 L 28.281904,48 16.644987,47.9738 C 9.1944717,47.957 4.7006406,47.84917 4.1535117,47.67404 Z M 29.148852,47.003551 c 1.307637,-0.600009 2.384675,-1.677338 2.984524,-2.985327 0.380539,-0.829759 0.472329,-1.682728 0.476889,-4.431295 l 0.006,-3.403747 H 29.91967 27.223086 v 2.957047 2.957047 l -10.593749,-0.067 -10.593739,-0.067 V 31.430917 20.898557 l 2.8892042,-0.0726 2.8892038,-0.0726 V 18.0353 15.317253 l -3.5584725,0.0977 c -3.4280531,0.0942 -3.6042828,0.12609 -4.8085604,0.870829 -0.7722084,0.47756 -1.5471869,1.253739 -2.0273159,2.030468 l -0.77724848,1.257409 v 11.837038 c 0,11.780008 0.003,11.842258 0.57721888,12.917367 0.6486487,1.214008 1.9557261,2.361127 3.2079936,2.815407 0.5951388,0.21589 4.1449617,0.30784 12.2659158,0.31773 10.558699,0.0128 11.506597,-0.022 12.455685,-0.45747 z M 20.417039,33.084275 C 17.940954,32.805235 16.432247,31.695527 15.375019,29.375669 14.94398,28.42986 14.90628,27.415571 14.90109,16.624882 L 14.89509,4.9016437 15.612319,3.5283451 C 16.519627,1.7910869 18.047234,0.60437808 19.86107,0.22771847 20.787629,0.03530866 24.826311,-0.03447127 32.129506,0.01572868 l 10.887168,0.07489992 1.451057,0.71278928 c 0.798089,0.39202962 1.759457,1.11720882 2.136376,1.61150832 1.431547,1.8773581 1.451857,2.0968379 1.368597,14.7880948 -0.0846,12.892917 -0.0123,12.325848 -1.799626,14.113686 -1.801096,1.801578 -1.822276,1.804438 -13.752723,1.861278 -5.895778,0.028 -11.297427,-0.014 -12.003676,-0.0937 z M 43.859943,32.188876 C 45.3316,31.575647 46.700737,30.086148 47.133916,28.62709 47.704895,26.703852 47.686535,6.553822 47.112016,4.618734 46.644327,3.0434156 45.23807,1.5292571 43.742923,0.99110769 42.464645,0.53101816 22.652175,0.29919839 20.366819,0.71758797 18.380783,1.0811776 17.024046,2.0662766 16.116788,3.8034448 l -0.727059,1.3921386 0.0738,11.7047086 c 0.073,11.562538 0.0808,11.717798 0.649359,12.781607 0.620339,1.160848 1.787986,2.164137 3.019984,2.594917 0.489599,0.17118 4.9627,0.27677 12.271305,0.28965 9.833941,0.0174 11.639247,-0.0374 12.455686,-0.37759 z"
       id="path316" />
  </g>
</svg>
